# xmcd
#
# Track frame offsets: 
#        150
#        17509
#        40273
#        60948
#        73763
#        92682
#        114645
#        135348
#        154976
#        174981
#        194252
#        211288
#        231273
#        251266
#        265506
#        287985
#
# Disc length: 4078 seconds
#
# Revision: 1
# Processed by: cddbd v1.5.2PL0 Copyright (c) Steve Scherf et al.
# Submitted via: ExactAudioCopy v1.0b3
#
DISCID=d60fec10
DTITLE=Various Artist - Margarita Caliente 16
DYEAR=2004
DGENRE=Salsa
TTITLE0=Miguel Enriquez - Abre que voy
TTITLE1=Dayron y el Boom - Chokolo
TTITLE2=Yuri Bonaventura y Cheo Feliciano - Palo y cuero
TTITLE3=Victor Hugo - Abreme la puerta
TTITLE4=Dino Latino - El verano
TTITLE5=Juan Kemell y la barriada - Loco por mi (Loca por mi)
TTITLE6=La Sonora Carrules - La comay
TTITLE7=Victor Hugo - Buscando rumbas
TTITLE8=Azucar - Come mueve (La cinturita)
TTITLE9=Zodiac - America Latina
TTITLE10=Chekeré - El manicero
TTITLE11=La Sonora Carruseles - Rumba de mulatos
TTITLE12=Rudi Lantermo - Vivela
TTITLE13=Azucar - La cinturita II
TTITLE14=La Sonora Carruseles - Me gocé el bongo
TTITLE15=Buena Fé - Guantanamero
EXTD=YEAR: 2004
EXTT0=
EXTT1=
EXTT2=
EXTT3=
EXTT4=
EXTT5=
EXTT6=
EXTT7=
EXTT8=
EXTT9=
EXTT10=
EXTT11=
EXTT12=
EXTT13=
EXTT14=
EXTT15=
PLAYORDER=
